Coordinates
version=1
nRows=14
nColumns=33
inDegrees=yes

Units are S.I. units (second, meters, Newtons, ...)
Angles are in degrees.

endheader
time	ground_thorax_rot_x	ground_thorax_rot_y	ground_thorax_rot_z	ground_thorax_tx	ground_thorax_ty	ground_thorax_tz	clav_prot_r	clav_elev_r	scapula_abduction_r	scapula_elevation_r	scapula_upward_rot_r	scapula_winging_r	shoulder_elv_r	plane_of_elev_r	axial_rot_r	elbow_flexion_r	pro_sup_r	wrist_flex_r	wrist_dev_r	clav_prot_l	clav_elev_l	scapula_abduction_l	scapula_elevation_l	scapula_upward_rot_l	scapula_winging_l	shoulder_elv_l	plane_of_elev_l	axial_rot_l	elbow_flexion_l	pro_sup_l	wrist_flex_l	wrist_dev_l
      6.38000000	    -41.09116246	     -5.52698225	      5.57514232	   -165.55262484	    892.01784066	    -10.18718119	      1.92550699	    -45.00000000	     42.84984341	    -45.00000000	     11.54564996	   1690.71173773	   -287.22237496	     22.70851414	   -179.99999979	    723.93127059	    292.53030753	     23.99470157	      9.03898081	     16.06169299	     39.17212212	    -41.48506325	    -45.00000000	    -43.29238006	   -633.07283057	  -3526.16729193	     21.70705603	    -39.75168987	     13.76065112	     53.87883206	      4.35208023	    -22.05640834
      6.39000000	    -41.25970312	     -4.95761847	      4.96943651	   -162.78713089	    894.07629019	    -10.10408814	      1.60152096	    -45.00000000	     43.46268614	    -45.00000000	     14.62260868	   1690.70278748	   -286.79909340	     22.44418968	   -179.99999979	    724.02195480	    292.12896155	     23.91076929	      9.27119917	     16.28406027	     39.37980800	    -41.80534626	    -45.00000000	    -42.48551034	   -632.99566188	  -3525.86311640	     21.61236675	    -39.14262624	     13.88164999	     53.33914640	      4.27436711	    -22.04130175
      6.40000000	    -41.25211769	     -4.72484126	      4.82418484	   -159.90924414	    895.86804581	    -10.00860131	      1.62506611	    -45.00000000	     43.37412538	    -45.00000000	     14.34346250	   1690.94832141	   -287.03502368	     22.90542856	   -179.99999979	    723.76261819	    291.76185324	     24.33040877	      9.07788058	     15.63955281	     39.53568486	    -42.00132282	    -45.00000000	    -41.58620665	   -632.69323239	  -3525.99429843	     21.80898009	    -39.04044626	     13.79453350	     52.92807521	      4.48961494	    -22.17891673
      6.41000000	    -41.35383453	     -4.48472365	      4.60363885	   -156.91311443	    897.36989312	     -9.90331041	      1.46298193	    -45.00000000	     43.79419825	    -45.00000000	     15.97275004	   1691.02713869	   -286.94227409	     22.81378650	   -179.99999979	    723.78544767	    291.25482350	     24.38235411	      9.18195087	     15.71721180	     39.63976337	    -42.26552242	    -45.00000000	    -40.97225959	   -632.51671779	  -3525.93445209	     21.90326564	    -38.59814221	     13.74505576	     52.31086765	      4.48349996	    -22.12124085
      6.42000000	    -41.37803715	     -4.10088746	      4.25677061	   -153.79968872	    898.56014165	     -9.79071887	      1.38050311	    -45.00000000	     43.96881841	    -45.00000000	     17.14232369	   1691.25755979	   -286.91872109	     22.88992908	   -179.99999979	    723.64879994	    290.67126207	     24.53530044	      9.22432317	     15.21734728	     39.66899251	    -42.45113594	    -45.00000000	    -40.07550391	   -632.54454663	  -3525.79624191	     21.85052694	    -38.28671976	     13.84169478	     51.60693440	      4.60915395	    -22.23881560
      6.43000000	    -41.40960700	     -3.84996584	      4.03255165	   -150.56442379	    899.42771160	     -9.67226561	      1.16450030	    -45.00000000	     44.38955568	    -45.00000000	     18.97254597	   1691.18382776	   -286.74901251	     22.96236641	   -179.99999979	    723.66198140	    289.90071379	     24.52187296	      9.35390754	     15.41320701	     39.99531867	    -42.68657396	    -45.00000000	    -39.11534688	   -632.34016757	  -3525.99269996	     21.97858461	    -37.97314696	     13.62143872	     50.68835088	      4.71759699	    -22.21676888
      6.44000000	    -41.49866322	     -3.67407385	      3.76084814	   -147.20595489	    899.96710595	     -9.54796194	      0.82690722	    -45.00000000	     45.00000000	    -45.00000000	     21.04399020	   1691.09349811	   -286.62247808	     22.83090519	   -179.99999979	    723.73672714	    288.91965752	     24.39001118	      9.56472552	     15.64435155	     40.40989836	    -42.94265092	    -45.00000000	    -38.12707367	   -632.13522532	  -3526.17566045	     22.00266574	    -37.80679358	     13.44649150	     49.43437975	      4.84963340	    -22.22928888
      6.45000000	    -41.57896781	     -3.16644334	      3.50207115	   -143.72551311	    900.17905451	     -9.41652869	      0.14174050	    -45.00000000	     45.00000000	    -45.00000000	     23.60822473	   1691.27866281	   -286.34710769	     22.49409169	   -179.99999979	    723.89540887	    287.50202379	     23.97268583	      9.99819892	     16.25814718	     40.74765423	    -43.46999086	    -45.00000000	    -37.40762906	   -632.18932897	  -3526.08452241	     21.86631509	    -37.44414473	     13.38039442	     47.43366528	      4.98712233	    -22.28384904
      6.46000000	    -41.58935647	     -3.04460008	      3.43581646	   -140.13346089	    900.07093092	     -9.27622436	      0.04075356	    -45.00000000	     45.00000000	    -45.00000000	     24.33812262	   1691.37081679	   -286.56756362	     22.65552816	   -179.99999979	    723.87659938	    286.13274549	     24.06523002	     10.12733907	     16.09305643	     40.95872932	    -43.62362374	    -45.00000000	    -36.54259998	   -631.97469114	  -3526.31303055	     22.13291809	    -37.25287823	     13.08711132	     45.44601951	      5.34659371	    -22.36703500
      6.47000000	    -41.63083605	     -2.45683344	      3.03677846	   -136.42563431	    899.65342001	     -9.12514958	     -0.82193095	    -45.00000000	     45.00000000	    -45.00000000	     26.26197644	   1691.56499709	   -286.58141078	     22.42328391	   -179.99999979	    723.97534623	    284.30533678	     23.76533905	     10.55423012	     16.42751047	     41.09415457	    -44.17947781	    -45.00000000	    -35.75943720	   -632.25708708	  -3526.23917297	     21.85043681	    -36.73114328	     12.90947152	     42.54306563	      5.72949709	    -22.48932605
      6.48000000	    -41.66175736	     -2.21263127	      2.91516760	   -132.61184743	    898.94167942	     -8.96218271	     -1.19229329	    -45.00000000	     45.00000000	    -45.00000000	     27.40550758	   1691.61968244	   -286.80252673	     22.40655672	   -179.99999979	    724.10026256	    282.34146291	     23.61071462	     10.87752412	     16.52585682	     41.27098853	    -44.51682917	    -45.00000000	    -35.02763643	   -632.25821570	  -3526.37364712	     21.88314409	    -36.36339365	     12.60606997	     39.27559639	      6.23743116	    -22.58431213
      6.49000000	    -41.61570263	     -2.02095037	      2.90247092	   -128.69734088	    897.95036327	     -8.78737826	     -1.49422836	    -45.00000000	     45.00000000	    -45.00000000	     28.34173541	   1691.64310895	   -286.96309406	     22.41560839	   -179.99999979	    724.13955595	    280.35379569	     23.41264378	     11.16220242	     16.56292343	     41.52548130	    -44.82015181	    -45.00000000	    -34.24779151	   -632.28670537	  -3526.62925102	     21.95210707	    -36.23361196	     12.28633067	     35.94977348	      6.79312779	    -22.66193510
      6.50000000	    -41.56464909	     -1.91612142	      2.86551341	   -124.68562280	    896.69317861	     -8.60215884	     -1.77369755	    -45.00000000	     45.00000000	    -45.00000000	     29.02071968	   1691.82223522	   -287.24163951	     22.35000576	   -179.99999979	    724.17827184	    278.38766597	     23.11191490	     11.44316659	     16.70914520	     41.74245468	    -45.00000000	    -45.00000000	    -33.69038171	   -632.45409951	  -3526.77378256	     22.00275327	    -35.89466274	     11.97836537	     32.72419767	      7.36982421	    -22.73330315
      6.51000000	    -41.51540897	     -1.42114081	      2.38698482	   -120.59161626	    895.18524453	     -8.41015728	     -2.30365221	    -45.00000000	     45.00000000	    -45.00000000	     30.39802371	   1691.77277488	   -287.64841666	     22.46419909	   -179.99999979	    724.38460134	    275.90791116	     23.00180206	     11.83368116	     16.32995960	     41.78450164	    -45.00000000	    -45.00000000	    -32.47499139	   -632.84137303	  -3526.87144577	     22.00509174	    -35.44550390	     11.62244792	     28.81678080	      8.17266077	    -22.74626164
